<svg width="150" height="150" fill="none" xmlns="http://www.w3.org/2000/svg"><g clip-path="url(#clip0_1_99)" fill="#64646A"><path d="M45.319 104.313c-3.967-2.275-6.647-6.55-6.647-11.442 0-20.193 16.428-36.621 36.621-36.621h15.091l.711-11.719H5.585l6.142 101.34A4.394 4.394 0 0016.113 150h26.965a21.859 21.859 0 01-4.406-13.184c0-5.698 3.635-10.562 8.707-12.399a17.469 17.469 0 01-2.847-9.573 17.47 17.47 0 012.853-9.582c-1.433-.323-2.229-.64-2.066-.949zm3.016-68.57h43.95a4.394 4.394 0 100-8.79H56.453L68.298 8.79h15.198a4.394 4.394 0 100-8.789H65.918a4.39 4.39 0 00-3.68 1.994l-16.279 24.96H4.395a4.394 4.394 0 100 8.788h43.924l.016.001z"/><path d="M47.46 92.871a4.394 4.394 0 004.395 4.395h93.75A4.394 4.394 0 00150 92.87c0-15.346-12.486-27.832-27.832-27.832H75.293c-15.347 0-27.832 12.486-27.832 27.832zm14.65 13.184a8.788 8.788 0 00-8.79 8.789 8.789 8.789 0 008.79 8.789h73.242a8.789 8.789 0 000-17.578H62.109zm83.495 26.367h-93.75a4.394 4.394 0 00-4.394 4.394c0 7.27 5.914 13.184 13.184 13.184h76.171c7.27 0 13.184-5.914 13.184-13.184a4.394 4.394 0 00-4.395-4.394z"/></g><defs><clipPath id="clip0_1_99"><path fill="#fff" d="M0 0h150v150H0z"/></clipPath></defs></svg>