<svg width="150" height="150" fill="none" xmlns="http://www.w3.org/2000/svg"><g clip-path="url(#clip0_1_112)"><path d="M116.158 51.643c-1.671-1.07-2.543-2.99-2.221-4.892C118.043 22.389 99.233.346 75.032.004c-25.198-.357-44.49 22.35-39.968 47.241.338 1.87-.422 3.788-1.936 4.883a14.974 14.974 0 00-6.19 13.097c.816 13.49 17.708 19.02 26.395 8.837.122.075.247.154.369.226 1.276.773 2.036 2.092 2.036 3.532v6.465c0 2.453.973 4.742 2.74 6.447 5.632 5.433 15.178 1.537 15.178-6.603V69.476c0-3.569 4.167-5.461 6.707-2.993a3.924 3.924 0 011.2 2.837v7.508a8.96 8.96 0 009.288 8.956c6.754-.25 8.19-5.356 8.562-9.232 9.727 6.868 23.223.172 23.667-11.686a15.09 15.09 0 00-6.922-13.223zm-47.82-30.752c-2.137.712-2.271 1.088-3.212 1.088-2.676 0-3.47-3.648-1.058-4.77a25.358 25.358 0 012.7-1.07 2.502 2.502 0 111.57 4.752zM52.66 37.122a2.504 2.504 0 01-2.434-3.1 25.26 25.26 0 015.002-9.963 2.502 2.502 0 113.863 3.178 20.24 20.24 0 00-4.003 7.98 2.499 2.499 0 01-2.428 1.905zm51.732 46.848a2.383 2.383 0 011.771 3.22l-22.388 56.527c-3.31 8.376-15.325 8.38-18.637 0L42.817 87.365c-.572-1.443.366-3.028 1.904-3.242a20.08 20.08 0 003.003-.657 2.39 2.39 0 013.081 2.056c.234 2.443 1.112 5.839 4.198 8.814 7.666 7.393 19.828 3.654 22.923-5.598.533-1.593 2.487-2.121 3.792-1.064 6.106 4.949 15.807 3.994 20.209-2.719.488-.743 1.406-1.184 2.465-.985z" fill="#64646A"/></g><defs><clipPath id="clip0_1_112"><path fill="#fff" d="M0 0h150v150H0z"/></clipPath></defs></svg>