<svg width="150" height="148" fill="none" xmlns="http://www.w3.org/2000/svg"><path d="M125.625 77.709a13.255 13.255 0 01-1.733-2.527c-.234 24.122-19.927 43.675-44.103 43.675-24.32 0-44.108-19.787-44.108-44.108 0-24.321 19.787-44.108 44.108-44.108 20.922 0 38.489 14.644 42.99 34.22l3.994-29.694.09-.668c-11.374-13.283-28.256-21.716-47.074-21.716-14.68 0-28.183 5.135-38.812 13.7v14.285c0 8.4-4.354 16.07-11.243 20.452v50.009c11.28 15.436 29.514 25.485 50.055 25.485 21.584 0 40.623-11.095 51.721-27.88v-27.24a13.272 13.272 0 01-5.885-3.885z" fill="#64646A"/><path d="M79.79 38.137c-20.189 0-36.613 16.424-36.613 36.612 0 20.189 16.424 36.612 36.612 36.612 20.188 0 36.612-16.423 36.612-36.612 0-20.188-16.424-36.612-36.612-36.612zm70.043-31.903a5.776 5.776 0 00-11.501-.77l-8.44 62.74a5.777 5.777 0 005.725 6.546h3.389v67.295a5.497 5.497 0 1010.993 0l-.166-135.811zM33.481 7.454a3.747 3.747 0 10-7.496 0v20.738H20.49V7.454a3.747 3.747 0 10-7.496 0v20.738H7.496V7.454a3.747 3.747 0 10-7.496 0v33.814c0 7.305 4.706 13.529 11.244 15.81v84.967a5.497 5.497 0 0010.994 0V57.077c6.538-2.28 11.243-8.504 11.243-15.81V7.455z" fill="#64646A"/></svg>