<svg width="120" height="120" fill="none" xmlns="http://www.w3.org/2000/svg"><g filter="url(#filter0_d_1_290)"><circle cx="60" cy="48" r="30" fill="#fff"/></g><path d="M64.143 49.162l-2.345 2.353c-.951.954-2.624.975-3.596 0l-2.345-2.353-8.423 8.45c.314.145.66.232 1.027.232h23.078a2.43 2.43 0 001.026-.232l-8.422-8.45z" fill="#64646A"/><path d="M71.54 38.156H48.46c-.367 0-.712.087-1.026.232l9 9.03.003.001v.002l2.927 2.936c.31.31.962.31 1.272 0l2.926-2.936.002-.002.002-.001 9-9.03a2.435 2.435 0 00-1.027-.232zm-25.278 1.379A2.43 2.43 0 0046 40.617v14.766c0 .39.1.754.262 1.082L54.699 48l-8.437-8.465zm27.476 0L65.301 48l8.437 8.465c.162-.328.262-.692.262-1.082V40.617c0-.39-.1-.754-.262-1.082z" fill="#64646A"/><defs><filter id="filter0_d_1_290" x="0" y="0" width="120" height="120" filterUnits="userSpaceOnUse" color-interpolation-filters="sRGB"><feFlood flood-opacity="0" result="BackgroundImageFix"/><feColorMatrix in="SourceAlpha" values="0 0 0 0 0 0 0 0 0 0 0 0 0 0 0 0 0 0 127 0" result="hardAlpha"/><feOffset dy="12"/><feGaussianBlur stdDeviation="15"/><feComposite in2="hardAlpha" operator="out"/><feColorMatrix values="0 0 0 0 0.802604 0 0 0 0 0.820052 0 0 0 0 0.8375 0 0 0 0.28 0"/><feBlend in2="BackgroundImageFix" result="effect1_dropShadow_1_290"/><feBlend in="SourceGraphic" in2="effect1_dropShadow_1_290" result="shape"/></filter></defs></svg>