<svg width="120" height="120" fill="none" xmlns="http://www.w3.org/2000/svg"><g filter="url(#filter0_d_1_317)"><circle cx="60" cy="48" r="30" fill="#fff"/></g><path d="M71.184 43.381a8.16 8.16 0 00-.524-2.77 5.762 5.762 0 00-3.291-3.29 8.257 8.257 0 00-2.733-.526c-1.202-.054-1.583-.069-4.636-.069s-3.444 0-4.638.07a8.256 8.256 0 00-2.73.524 5.759 5.759 0 00-3.292 3.291 8.192 8.192 0 00-.524 2.732c-.053 1.203-.07 1.585-.07 4.637 0 3.053 0 3.443.07 4.638a8.24 8.24 0 00.524 2.733 5.762 5.762 0 003.292 3.29 8.23 8.23 0 002.732.563c1.204.054 1.585.07 4.637.07 3.053 0 3.444 0 4.638-.07a8.237 8.237 0 002.732-.524 5.77 5.77 0 003.291-3.291 8.232 8.232 0 00.524-2.734c.054-1.202.07-1.584.07-4.637-.002-3.053-.002-3.44-.072-4.637zM59.993 53.753a5.778 5.778 0 01-5.78-5.78 5.779 5.779 0 115.779 5.779zM66 43.329a1.346 1.346 0 01-1.347-1.348 1.346 1.346 0 112.694 0c0 .745-.603 1.348-1.347 1.348z" fill="#64646A"/><path d="M59.992 51.727a3.754 3.754 0 100-7.507 3.754 3.754 0 000 7.508z" fill="#64646A"/><defs><filter id="filter0_d_1_317" x="0" y="0" width="120" height="120" filterUnits="userSpaceOnUse" color-interpolation-filters="sRGB"><feFlood flood-opacity="0" result="BackgroundImageFix"/><feColorMatrix in="SourceAlpha" values="0 0 0 0 0 0 0 0 0 0 0 0 0 0 0 0 0 0 127 0" result="hardAlpha"/><feOffset dy="12"/><feGaussianBlur stdDeviation="15"/><feComposite in2="hardAlpha" operator="out"/><feColorMatrix values="0 0 0 0 0.802604 0 0 0 0 0.820052 0 0 0 0 0.8375 0 0 0 0.28 0"/><feBlend in2="BackgroundImageFix" result="effect1_dropShadow_1_317"/><feBlend in="SourceGraphic" in2="effect1_dropShadow_1_317" result="shape"/></filter></defs></svg>