<svg width="120" height="120" fill="none" xmlns="http://www.w3.org/2000/svg"><g filter="url(#filter0_d_1_326)"><circle cx="60" cy="48" r="30" fill="#fff"/></g><path d="M51.229 41.996a2.735 2.735 0 100-5.47 2.735 2.735 0 000 5.47zm5.317 2.073v15.174h4.712v-7.504c0-1.98.372-3.898 2.827-3.898 2.421 0 2.451 2.264 2.451 4.023v7.38h4.714v-8.321c0-4.088-.88-7.23-5.657-7.23-2.294 0-3.832 1.26-4.46 2.45h-.064V44.07h-4.523zm-7.677 0h4.718v15.174H48.87V44.069z" fill="#64646A"/><defs><filter id="filter0_d_1_326" x="0" y="0" width="120" height="120" filterUnits="userSpaceOnUse" color-interpolation-filters="sRGB"><feFlood flood-opacity="0" result="BackgroundImageFix"/><feColorMatrix in="SourceAlpha" values="0 0 0 0 0 0 0 0 0 0 0 0 0 0 0 0 0 0 127 0" result="hardAlpha"/><feOffset dy="12"/><feGaussianBlur stdDeviation="15"/><feComposite in2="hardAlpha" operator="out"/><feColorMatrix values="0 0 0 0 0.802604 0 0 0 0 0.820052 0 0 0 0 0.8375 0 0 0 0.28 0"/><feBlend in2="BackgroundImageFix" result="effect1_dropShadow_1_326"/><feBlend in="SourceGraphic" in2="effect1_dropShadow_1_326" result="shape"/></filter></defs></svg>