<svg width="120" height="120" fill="none" xmlns="http://www.w3.org/2000/svg"><g filter="url(#filter0_d_1_307)"><circle cx="60" cy="48" r="30" fill="#fff"/></g><path d="M67.708 50.975c-.84-.18-1.504.209-2.092.55-.602.35-1.747 1.28-2.404 1.042-3.361-1.384-6.522-4.326-7.89-7.7-.242-.671.683-1.824 1.031-2.433.338-.59.72-1.26.546-2.107-.158-.76-2.193-3.35-2.913-4.058-.474-.468-.96-.725-1.46-.766-1.876-.08-3.972 2.423-4.34 3.022-.92 1.277-.915 2.977.016 5.038 2.244 5.535 10.732 13.89 16.288 16.218 1.026.48 1.963.72 2.806.72.824 0 1.557-.23 2.188-.686.476-.275 3.083-2.474 3.014-4.401-.04-.492-.297-.983-.76-1.458-.702-.727-3.275-2.823-4.03-2.981z" fill="#64646A"/><defs><filter id="filter0_d_1_307" x="0" y="0" width="120" height="120" filterUnits="userSpaceOnUse" color-interpolation-filters="sRGB"><feFlood flood-opacity="0" result="BackgroundImageFix"/><feColorMatrix in="SourceAlpha" values="0 0 0 0 0 0 0 0 0 0 0 0 0 0 0 0 0 0 127 0" result="hardAlpha"/><feOffset dy="12"/><feGaussianBlur stdDeviation="15"/><feComposite in2="hardAlpha" operator="out"/><feColorMatrix values="0 0 0 0 0.802604 0 0 0 0 0.820052 0 0 0 0 0.8375 0 0 0 0.28 0"/><feBlend in2="BackgroundImageFix" result="effect1_dropShadow_1_307"/><feBlend in="SourceGraphic" in2="effect1_dropShadow_1_307" result="shape"/></filter></defs></svg>