<svg width="120" height="120" fill="none" xmlns="http://www.w3.org/2000/svg"><g filter="url(#filter0_d_1_322)"><circle cx="60" cy="48" r="30" fill="#fff"/></g><path d="M69.541 42.996c.017.219.017.436.017.654 0 6.656-5.067 14.326-14.326 14.326-2.852 0-5.502-.826-7.732-2.261.405.046.795.062 1.216.062 2.354 0 4.52-.795 6.252-2.15a5.045 5.045 0 01-4.71-3.492c.312.046.624.077.952.077a5.39 5.39 0 001.326-.17A5.034 5.034 0 0148.5 45.1v-.063a5.08 5.08 0 002.275.64 5.028 5.028 0 01-2.245-4.193c0-.935.248-1.793.685-2.54a14.32 14.32 0 0010.382 5.268 5.721 5.721 0 01-.125-1.153 5.033 5.033 0 015.035-5.035 5.02 5.02 0 013.679 1.59 9.947 9.947 0 003.195-1.217 5.025 5.025 0 01-2.214 2.775c1.014-.11 1.996-.39 2.899-.78a10.806 10.806 0 01-2.524 2.604z" fill="#64646A"/><defs><filter id="filter0_d_1_322" x="0" y="0" width="120" height="120" filterUnits="userSpaceOnUse" color-interpolation-filters="sRGB"><feFlood flood-opacity="0" result="BackgroundImageFix"/><feColorMatrix in="SourceAlpha" values="0 0 0 0 0 0 0 0 0 0 0 0 0 0 0 0 0 0 127 0" result="hardAlpha"/><feOffset dy="12"/><feGaussianBlur stdDeviation="15"/><feComposite in2="hardAlpha" operator="out"/><feColorMatrix values="0 0 0 0 0.802604 0 0 0 0 0.820052 0 0 0 0 0.8375 0 0 0 0.28 0"/><feBlend in2="BackgroundImageFix" result="effect1_dropShadow_1_322"/><feBlend in="SourceGraphic" in2="effect1_dropShadow_1_322" result="shape"/></filter></defs></svg>