<svg width="20" height="20" viewBox="0 0 20 20" fill="none" xmlns="http://www.w3.org/2000/svg">
<path d="M19.947 7.179C19.818 6.801 19.477 6.534 19.079 6.503L13.378 6.05L10.911 0.589C10.75 0.23 10.393 0 9.99999 0C9.60699 0 9.24999 0.23 9.08899 0.588L6.62199 6.05L0.920994 6.503C0.529994 6.534 0.192994 6.791 0.0599941 7.16C-0.0730059 7.529 0.0209942 7.942 0.301994 8.216L4.51499 12.323L3.02499 18.775C2.93299 19.174 3.09399 19.589 3.43099 19.822C3.60299 19.94 3.80099 20 3.99999 20C4.19299 20 4.38699 19.944 4.55499 19.832L9.99999 16.202L15.445 19.832C15.793 20.064 16.25 20.055 16.59 19.808C16.928 19.561 17.077 19.128 16.962 18.726L15.133 12.326L19.669 8.244C19.966 7.976 20.075 7.558 19.947 7.179Z" fill="#FFB700"/>
</svg>
