<svg width="120" height="120" viewBox="0 0 120 120" fill="none" xmlns="http://www.w3.org/2000/svg">
<g filter="url(#filter0_d_1_307)">
<circle cx="60" cy="48" r="30" fill="white"/>
</g>
<path d="M67.7082 50.9747C66.8686 50.7941 66.2044 51.1839 65.6162 51.5244C65.0139 51.8752 63.8686 52.8043 63.2121 52.5666C59.851 51.1827 56.6899 48.2408 55.3214 44.8662C55.0802 44.1957 56.005 43.0431 56.3532 42.4337C56.6911 41.8438 57.0729 41.1733 56.8988 40.3274C56.7414 39.5672 54.7062 36.9775 53.9865 36.2693C53.5119 35.8015 53.0257 35.5442 52.5265 35.5026C50.6499 35.4221 48.5541 37.926 48.1865 38.5251C47.2656 39.8024 47.2708 41.502 48.202 43.5629C50.4462 49.0984 58.934 57.4523 64.4902 59.7808C65.5156 60.2603 66.4532 60.5007 67.2955 60.5007C68.1196 60.5007 68.8535 60.2707 69.4843 59.8147C69.9601 59.5404 72.5667 57.3406 72.4984 55.4136C72.4571 54.9223 72.2005 54.4312 71.7388 53.9556C71.0358 53.2292 68.4627 51.1333 67.7082 50.9747Z" fill="#64646A"/>
<defs>
<filter id="filter0_d_1_307" x="0" y="0" width="120" height="120" filterUnits="userSpaceOnUse" color-interpolation-filters="sRGB">
<feFlood flood-opacity="0" result="BackgroundImageFix"/>
<feColorMatrix in="SourceAlpha" type="matrix" values="0 0 0 0 0 0 0 0 0 0 0 0 0 0 0 0 0 0 127 0" result="hardAlpha"/>
<feOffset dy="12"/>
<feGaussianBlur stdDeviation="15"/>
<feComposite in2="hardAlpha" operator="out"/>
<feColorMatrix type="matrix" values="0 0 0 0 0.802604 0 0 0 0 0.820052 0 0 0 0 0.8375 0 0 0 0.28 0"/>
<feBlend mode="normal" in2="BackgroundImageFix" result="effect1_dropShadow_1_307"/>
<feBlend mode="normal" in="SourceGraphic" in2="effect1_dropShadow_1_307" result="shape"/>
</filter>
</defs>
</svg>
